<svg xmlns="http://www.w3.org/2000/svg" version="1.1" xmlns:xlink="http://www.w3.org/1999/xlink" xmlns:svgjs="http://svgjs.dev/svgjs" width="1500" height="1500" viewBox="0 0 1500 1500"><rect width="1500" height="1500" fill="#ffffff"></rect><g transform="matrix(0.6666666666666666,0,0,0.6666666666666666,249.39393939393938,627.5506822921255)"><svg viewBox="0 0 396 97" data-background-color="#ffffff" preserveAspectRatio="xMidYMid meet" height="367" width="1500" xmlns="http://www.w3.org/2000/svg" xmlns:xlink="http://www.w3.org/1999/xlink"><g id="tight-bounds" transform="matrix(1,0,0,1,0.2400000000000091,0.04598290598289623)"><svg viewBox="0 0 395.52 96.90803418803418" height="96.90803418803418" width="395.52"><g><svg viewBox="0 0 395.52 96.90803418803418" height="96.90803418803418" width="395.52"><g><svg viewBox="0 0 395.52 96.90803418803418" height="96.90803418803418" width="395.52"><g id="textblocktransform"><svg viewBox="0 0 395.52 96.90803418803418" height="96.90803418803418" width="395.52" id="textblock"><g><svg viewBox="0 0 395.52 96.90803418803418" height="96.90803418803418" width="395.52"><g transform="matrix(1,0,0,1,0,0)"><svg width="395.52" viewBox="0.9 -38.55 157.94 38.699999999999996" height="96.90803418803418" data-palette-color="#010c80"><g class="wordmark-text-0" data-fill-palette-color="primary" id="text-0"><path d="M15.85 0.15L15.85 0.15Q13.2 0.15 11.08-1.05 8.95-2.25 7.75-4.48 6.55-6.7 6.55-9.7L6.55-9.7 6.55-18.5 4.7-18.25Q3.2-18.05 2.05-19.3 0.9-20.55 0.9-22.45L0.9-22.45Q0.9-24.35 2.05-25.58 3.2-26.8 4.7-26.6L4.7-26.6 6.55-26.35 6.5-29.75Q6.45-31.75 7.65-32.93 8.85-34.1 11.15-34.1L11.15-34.1Q13.45-34.1 14.7-32.93 15.95-31.75 15.85-29.75L15.85-29.75 15.75-26.35 18.4-26.7Q21.1-27.1 22.5-25.73 23.9-24.35 23.9-22.45L23.9-22.45Q23.9-20.55 22.53-19.18 21.15-17.8 18.55-18.15L18.55-18.15 15.75-18.5 15.75-11.05Q15.75-10.4 16.2-9.88 16.65-9.35 17.3-9.55L17.3-9.55Q18.05-9.75 18.88-10.4 19.7-11.05 21-11.05L21-11.05Q22.95-11.05 24-9.65 25.05-8.25 25.05-6.2L25.05-6.2Q25.05-4.6 23.93-3.13 22.8-1.65 20.75-0.75 18.7 0.15 15.85 0.15ZM32.25 0L32.25 0Q29.9 0 28.6-1.35 27.3-2.7 27.3-4.75L27.3-4.75 27.3-21.15Q27.3-23.3 28.6-24.73 29.9-26.15 32.25-26.15L32.25-26.15Q34.6-26.15 35.85-24.73 37.1-23.3 37.1-21.25L37.1-21.25 37.1-20.2 38.05-20.2Q38.25-22.85 40.05-24.55 41.85-26.25 44.3-26.25L44.3-26.25Q46.75-26.25 48.17-24.75 49.6-23.25 49.6-20.75L49.6-20.75Q49.6-18.4 48.25-16.85 46.9-15.3 44.8-15.3L44.8-15.3Q43.05-15.3 41.87-16.13 40.7-16.95 40.15-18.05L40.15-18.05Q38.55-18.25 37.82-17.73 37.1-17.2 37.1-15.65L37.1-15.65 37.1-4.75Q37.1-2.7 35.85-1.35 34.6 0 32.25 0ZM58.8 0L58.8 0Q55.09 0 53.02-2 50.95-4 50.95-7.6L50.95-7.6Q50.95-11.2 53.34-12.83 55.75-14.45 59.5-14.45L59.5-14.45Q61.7-14.45 63.5-14.15 65.3-13.85 66.75-13.3L66.75-13.3 66.9-13.3 66.9-14.05Q66.9-15.2 66.05-15.88 65.2-16.55 63.9-16.5L63.9-16.5Q62.65-16.5 61.77-16.35 60.9-16.2 59.59-15.85L59.59-15.85Q57.2-15.25 55.45-15.95 53.7-16.65 53.05-18.7L53.05-18.7Q52.45-20.85 53.32-22.3 54.2-23.75 56-24.55L56-24.55Q57.55-25.3 59.47-25.8 61.4-26.3 63.65-26.3L63.65-26.3Q70.2-26.3 73.27-23.13 76.34-19.95 76.34-12.5L76.34-12.5 76.34-4.75Q76.34-2.7 75.09-1.35 73.84 0 71.65 0L71.65 0Q69.25 0 68.07-1.35 66.9-2.7 66.9-4.65L66.9-4.65 66.9-5.8 65.9-5.8Q65.9-4.5 65.42-3.15 64.95-1.8 63.47-0.9 62 0 58.8 0ZM59.3-10.95L59.3-10.95Q59.3-10.1 59.92-9.75 60.55-9.4 62.65-9.4L62.65-9.4Q64.55-9.4 65.3-9.75 66.05-10.1 66.05-10.95L66.05-10.95Q66.05-11.75 65.3-12.08 64.55-12.4 62.65-12.4L62.65-12.4Q60.55-12.4 59.92-12.08 59.3-11.75 59.3-10.95ZM91.79 0.15L91.79 0.15Q87.89 0.15 84.89-1.48 81.89-3.1 80.19-6.1 78.49-9.1 78.49-13.15L78.49-13.15Q78.49-17.2 80.19-20.2 81.89-23.2 84.92-24.85 87.94-26.5 91.89-26.5L91.89-26.5Q94.99-26.5 97.37-25.85 99.74-25.2 101.12-23.9 102.49-22.6 102.49-20.65L102.49-20.65Q102.49-18.3 101.29-16.98 100.09-15.65 97.84-15.65L97.84-15.65Q96.34-15.65 94.87-16.1 93.39-16.55 91.09-16.55L91.09-16.55Q89.19-16.55 87.89-15.95 86.59-15.35 86.59-13.75L86.59-13.75Q86.59-12.1 87.89-11.38 89.19-10.65 91.09-10.65L91.09-10.65Q92.64-10.65 93.69-10.95 94.74-11.25 95.69-11.55 96.64-11.85 97.84-11.85L97.84-11.85Q100.39-11.85 101.62-10.38 102.84-8.9 102.84-6.6L102.84-6.6Q102.84-4.65 101.39-3.13 99.94-1.6 97.44-0.73 94.94 0.15 91.79 0.15ZM109.64 0L109.64 0Q107.44 0 106.14-1.33 104.84-2.65 104.84-4.6L104.84-4.6 104.84-33.55Q104.84-35.65 106.12-37.1 107.39-38.55 109.74-38.55L109.74-38.55Q112.04-38.55 113.22-37.1 114.39-35.65 114.39-33.5L114.39-33.5 114.39-18.35 114.54-18.3Q114.79-20.4 115.84-22.18 116.89-23.95 118.79-25.05 120.69-26.15 123.44-26.15L123.44-26.15Q127.14-26.15 129.39-24.1 131.64-22.05 131.64-18.5L131.64-18.5Q131.64-16.05 130.67-14.63 129.69-13.2 128.04-12.65 126.39-12.1 124.39-12.15L124.39-12.15 124.39-11.3Q128.84-11.3 130.72-9.53 132.59-7.75 132.59-5.05L132.59-5.05Q132.59-2.55 131.09-1.2 129.59 0.15 127.49 0.1L127.49 0.1Q125.19 0.05 123.69-1.25 122.19-2.55 121.19-4.75L121.19-4.75 119.04-9.3Q118.39-10.65 117.37-11.25 116.34-11.85 114.39-11.7L114.39-11.7 114.39-4.6Q114.39-2.65 113.12-1.33 111.84 0 109.64 0ZM115.44-15.1L115.44-15.1Q115.44-14.4 116.17-14.08 116.89-13.75 119.19-13.75L119.19-13.75Q121.44-13.75 122.19-14.05 122.94-14.35 122.94-15.1L122.94-15.1Q122.94-15.8 122.19-16.15 121.44-16.5 119.24-16.5L119.24-16.5Q116.89-16.5 116.17-16.15 115.44-15.8 115.44-15.1ZM153.19 0L141.04 0Q137.89 0 135.94-1.55 133.99-3.1 133.99-5.8L133.99-5.8Q133.99-8.55 135.39-9.9 136.79-11.25 138.44-11.85L138.44-11.85 149.99-16.15 149.99-16.35 139.84-16.35Q137.59-16.35 136.11-17.57 134.64-18.8 134.64-21.25L134.64-21.25Q134.64-23.75 136.11-24.95 137.59-26.15 139.84-26.15L139.84-26.15 152.09-26.15Q154.49-26.15 156.16-25 157.84-23.85 157.84-20.9L157.84-20.9Q157.84-18.65 156.46-17.1 155.09-15.55 152.49-14.55L152.49-14.55 142.99-10.95 142.99-10.75 153.19-10.75Q155.64-10.75 157.24-9.4 158.84-8.05 158.84-5.35L158.84-5.35Q158.84-2.6 157.24-1.3 155.64 0 153.19 0L153.19 0Z" fill="#000000" data-fill-palette-color="primary"></path></g></svg></g></svg></g></svg></g></svg></g></svg></g><defs></defs></svg><rect width="395.52" height="96.90803418803418" fill="none" stroke="none" visibility="hidden"></rect></g></svg></g></svg>